<mxfile host="app.diagrams.net" modified="2023-11-26T13:42:00.355Z" agent="Mozilla/5.0 (Windows NT 10.0; Win64; x64) AppleWebKit/537.36 (KHTML, like Gecko) Chrome/109.0.0.0 Safari/537.36" etag="GgMccAVVnBmIrWMZ5X_C" version="22.1.4" type="device">
  <diagram name="Page-1" id="ot3oJ0A_FJG3IO7jYxw4">
    <mxGraphModel dx="1259" dy="679" grid="1" gridSize="10" guides="1" tooltips="1" connect="1" arrows="1" fold="1" page="1" pageScale="1" pageWidth="850" pageHeight="1100" math="0" shadow="0">
      <root>
        <mxCell id="0" />
        <mxCell id="1" parent="0" />
        <mxCell id="2TrJgn0k99Wz9AcOf1YM-1" value="" style="rounded=0;whiteSpace=wrap;html=1;" vertex="1" parent="1">
          <mxGeometry y="120" width="190" height="40" as="geometry" />
        </mxCell>
        <mxCell id="2TrJgn0k99Wz9AcOf1YM-2" value="opcode" style="text;html=1;strokeColor=none;fillColor=none;align=center;verticalAlign=middle;whiteSpace=wrap;rounded=0;" vertex="1" parent="1">
          <mxGeometry y="125" width="60" height="30" as="geometry" />
        </mxCell>
        <mxCell id="2TrJgn0k99Wz9AcOf1YM-3" value="" style="endArrow=none;html=1;rounded=0;entryX=0.325;entryY=0.018;entryDx=0;entryDy=0;entryPerimeter=0;" edge="1" parent="1">
          <mxGeometry width="50" height="50" relative="1" as="geometry">
            <mxPoint x="60" y="160" as="sourcePoint" />
            <mxPoint x="60" y="119.99999999999997" as="targetPoint" />
          </mxGeometry>
        </mxCell>
        <mxCell id="2TrJgn0k99Wz9AcOf1YM-4" value="operand" style="text;html=1;strokeColor=none;fillColor=none;align=center;verticalAlign=middle;whiteSpace=wrap;rounded=0;" vertex="1" parent="1">
          <mxGeometry x="60" y="125" width="130" height="30" as="geometry" />
        </mxCell>
        <mxCell id="2TrJgn0k99Wz9AcOf1YM-5" value="Immediate" style="text;html=1;strokeColor=none;fillColor=none;align=center;verticalAlign=middle;whiteSpace=wrap;rounded=0;fontStyle=2" vertex="1" parent="1">
          <mxGeometry x="10" y="80" width="170" height="30" as="geometry" />
        </mxCell>
        <mxCell id="2TrJgn0k99Wz9AcOf1YM-6" value="" style="rounded=0;whiteSpace=wrap;html=1;" vertex="1" parent="1">
          <mxGeometry x="250" y="120" width="190" height="40" as="geometry" />
        </mxCell>
        <mxCell id="2TrJgn0k99Wz9AcOf1YM-7" value="opcode" style="text;html=1;strokeColor=none;fillColor=none;align=center;verticalAlign=middle;whiteSpace=wrap;rounded=0;" vertex="1" parent="1">
          <mxGeometry x="250" y="125" width="60" height="30" as="geometry" />
        </mxCell>
        <mxCell id="2TrJgn0k99Wz9AcOf1YM-8" value="" style="endArrow=none;html=1;rounded=0;entryX=0.325;entryY=0.018;entryDx=0;entryDy=0;entryPerimeter=0;" edge="1" parent="1">
          <mxGeometry width="50" height="50" relative="1" as="geometry">
            <mxPoint x="310" y="160" as="sourcePoint" />
            <mxPoint x="310" y="119.99999999999997" as="targetPoint" />
          </mxGeometry>
        </mxCell>
        <mxCell id="2TrJgn0k99Wz9AcOf1YM-9" value="address" style="text;html=1;strokeColor=none;fillColor=none;align=center;verticalAlign=middle;whiteSpace=wrap;rounded=0;" vertex="1" parent="1">
          <mxGeometry x="310" y="125" width="130" height="30" as="geometry" />
        </mxCell>
        <mxCell id="2TrJgn0k99Wz9AcOf1YM-10" value="Direct" style="text;html=1;strokeColor=none;fillColor=none;align=center;verticalAlign=middle;whiteSpace=wrap;rounded=0;fontStyle=2" vertex="1" parent="1">
          <mxGeometry x="260" y="80" width="170" height="30" as="geometry" />
        </mxCell>
        <mxCell id="2TrJgn0k99Wz9AcOf1YM-11" value="" style="rounded=0;whiteSpace=wrap;html=1;" vertex="1" parent="1">
          <mxGeometry x="450" y="200" width="80" height="120" as="geometry" />
        </mxCell>
        <mxCell id="2TrJgn0k99Wz9AcOf1YM-12" value="" style="endArrow=none;html=1;rounded=0;" edge="1" parent="1">
          <mxGeometry width="50" height="50" relative="1" as="geometry">
            <mxPoint x="450" y="220" as="sourcePoint" />
            <mxPoint x="530" y="220" as="targetPoint" />
          </mxGeometry>
        </mxCell>
        <mxCell id="2TrJgn0k99Wz9AcOf1YM-13" value="" style="endArrow=none;html=1;rounded=0;" edge="1" parent="1">
          <mxGeometry width="50" height="50" relative="1" as="geometry">
            <mxPoint x="450" y="240" as="sourcePoint" />
            <mxPoint x="530" y="240" as="targetPoint" />
          </mxGeometry>
        </mxCell>
        <mxCell id="2TrJgn0k99Wz9AcOf1YM-14" value="" style="endArrow=none;html=1;rounded=0;" edge="1" parent="1">
          <mxGeometry width="50" height="50" relative="1" as="geometry">
            <mxPoint x="450" y="259.8" as="sourcePoint" />
            <mxPoint x="530" y="259.8" as="targetPoint" />
          </mxGeometry>
        </mxCell>
        <mxCell id="2TrJgn0k99Wz9AcOf1YM-15" value="" style="endArrow=none;html=1;rounded=0;" edge="1" parent="1">
          <mxGeometry width="50" height="50" relative="1" as="geometry">
            <mxPoint x="450" y="280" as="sourcePoint" />
            <mxPoint x="530" y="280" as="targetPoint" />
          </mxGeometry>
        </mxCell>
        <mxCell id="2TrJgn0k99Wz9AcOf1YM-16" value="" style="endArrow=none;html=1;rounded=0;" edge="1" parent="1">
          <mxGeometry width="50" height="50" relative="1" as="geometry">
            <mxPoint x="450" y="300" as="sourcePoint" />
            <mxPoint x="530" y="300" as="targetPoint" />
          </mxGeometry>
        </mxCell>
        <mxCell id="2TrJgn0k99Wz9AcOf1YM-18" value="operand" style="text;html=1;strokeColor=none;fillColor=none;align=center;verticalAlign=middle;whiteSpace=wrap;rounded=0;" vertex="1" parent="1">
          <mxGeometry x="450" y="240" width="80" height="20" as="geometry" />
        </mxCell>
        <mxCell id="2TrJgn0k99Wz9AcOf1YM-20" value="" style="endArrow=classic;html=1;rounded=0;exitX=0.656;exitY=1.015;exitDx=0;exitDy=0;exitPerimeter=0;entryX=0;entryY=0.5;entryDx=0;entryDy=0;" edge="1" parent="1" source="2TrJgn0k99Wz9AcOf1YM-6" target="2TrJgn0k99Wz9AcOf1YM-18">
          <mxGeometry width="50" height="50" relative="1" as="geometry">
            <mxPoint x="450" y="310" as="sourcePoint" />
            <mxPoint x="500" y="260" as="targetPoint" />
            <Array as="points">
              <mxPoint x="375" y="250" />
            </Array>
          </mxGeometry>
        </mxCell>
        <mxCell id="2TrJgn0k99Wz9AcOf1YM-21" value="memory" style="text;html=1;strokeColor=none;fillColor=none;align=center;verticalAlign=middle;whiteSpace=wrap;rounded=0;" vertex="1" parent="1">
          <mxGeometry x="450" y="170" width="80" height="30" as="geometry" />
        </mxCell>
        <mxCell id="2TrJgn0k99Wz9AcOf1YM-22" value="effective address" style="text;html=1;strokeColor=none;fillColor=none;align=center;verticalAlign=middle;whiteSpace=wrap;rounded=0;" vertex="1" parent="1">
          <mxGeometry x="350" y="250" width="100" height="30" as="geometry" />
        </mxCell>
        <mxCell id="2TrJgn0k99Wz9AcOf1YM-23" value="" style="rounded=0;whiteSpace=wrap;html=1;" vertex="1" parent="1">
          <mxGeometry x="610" y="120" width="190" height="40" as="geometry" />
        </mxCell>
        <mxCell id="2TrJgn0k99Wz9AcOf1YM-24" value="opcode" style="text;html=1;strokeColor=none;fillColor=none;align=center;verticalAlign=middle;whiteSpace=wrap;rounded=0;" vertex="1" parent="1">
          <mxGeometry x="610" y="125" width="60" height="30" as="geometry" />
        </mxCell>
        <mxCell id="2TrJgn0k99Wz9AcOf1YM-25" value="" style="endArrow=none;html=1;rounded=0;entryX=0.325;entryY=0.018;entryDx=0;entryDy=0;entryPerimeter=0;" edge="1" parent="1">
          <mxGeometry width="50" height="50" relative="1" as="geometry">
            <mxPoint x="670" y="160" as="sourcePoint" />
            <mxPoint x="670" y="119.99999999999997" as="targetPoint" />
          </mxGeometry>
        </mxCell>
        <mxCell id="2TrJgn0k99Wz9AcOf1YM-26" value="address" style="text;html=1;strokeColor=none;fillColor=none;align=center;verticalAlign=middle;whiteSpace=wrap;rounded=0;" vertex="1" parent="1">
          <mxGeometry x="670" y="125" width="130" height="30" as="geometry" />
        </mxCell>
        <mxCell id="2TrJgn0k99Wz9AcOf1YM-27" value="Indirect" style="text;html=1;strokeColor=none;fillColor=none;align=center;verticalAlign=middle;whiteSpace=wrap;rounded=0;fontStyle=2" vertex="1" parent="1">
          <mxGeometry x="620" y="80" width="170" height="30" as="geometry" />
        </mxCell>
        <mxCell id="2TrJgn0k99Wz9AcOf1YM-28" value="" style="rounded=0;whiteSpace=wrap;html=1;" vertex="1" parent="1">
          <mxGeometry x="830" y="160" width="80" height="160" as="geometry" />
        </mxCell>
        <mxCell id="2TrJgn0k99Wz9AcOf1YM-29" value="" style="endArrow=none;html=1;rounded=0;" edge="1" parent="1">
          <mxGeometry width="50" height="50" relative="1" as="geometry">
            <mxPoint x="830" y="220" as="sourcePoint" />
            <mxPoint x="910" y="220" as="targetPoint" />
          </mxGeometry>
        </mxCell>
        <mxCell id="2TrJgn0k99Wz9AcOf1YM-30" value="" style="endArrow=none;html=1;rounded=0;" edge="1" parent="1">
          <mxGeometry width="50" height="50" relative="1" as="geometry">
            <mxPoint x="830" y="240" as="sourcePoint" />
            <mxPoint x="910" y="240" as="targetPoint" />
          </mxGeometry>
        </mxCell>
        <mxCell id="2TrJgn0k99Wz9AcOf1YM-31" value="" style="endArrow=none;html=1;rounded=0;" edge="1" parent="1">
          <mxGeometry width="50" height="50" relative="1" as="geometry">
            <mxPoint x="830" y="259.8" as="sourcePoint" />
            <mxPoint x="910" y="259.8" as="targetPoint" />
          </mxGeometry>
        </mxCell>
        <mxCell id="2TrJgn0k99Wz9AcOf1YM-32" value="" style="endArrow=none;html=1;rounded=0;" edge="1" parent="1">
          <mxGeometry width="50" height="50" relative="1" as="geometry">
            <mxPoint x="830" y="280" as="sourcePoint" />
            <mxPoint x="910" y="280" as="targetPoint" />
          </mxGeometry>
        </mxCell>
        <mxCell id="2TrJgn0k99Wz9AcOf1YM-33" value="" style="endArrow=none;html=1;rounded=0;" edge="1" parent="1">
          <mxGeometry width="50" height="50" relative="1" as="geometry">
            <mxPoint x="830" y="300" as="sourcePoint" />
            <mxPoint x="910" y="300" as="targetPoint" />
          </mxGeometry>
        </mxCell>
        <mxCell id="2TrJgn0k99Wz9AcOf1YM-34" value="2000" style="text;html=1;strokeColor=none;fillColor=none;align=center;verticalAlign=middle;whiteSpace=wrap;rounded=0;" vertex="1" parent="1">
          <mxGeometry x="830" y="280" width="80" height="20" as="geometry" />
        </mxCell>
        <mxCell id="2TrJgn0k99Wz9AcOf1YM-35" value="" style="endArrow=classic;html=1;rounded=0;exitX=0.649;exitY=1.023;exitDx=0;exitDy=0;exitPerimeter=0;entryX=0;entryY=0.5;entryDx=0;entryDy=0;" edge="1" parent="1" source="2TrJgn0k99Wz9AcOf1YM-23">
          <mxGeometry width="50" height="50" relative="1" as="geometry">
            <mxPoint x="734.6400000000001" y="200.00000000000003" as="sourcePoint" />
            <mxPoint x="829.9999999999998" y="289.4" as="targetPoint" />
            <Array as="points">
              <mxPoint x="735" y="289.4" />
            </Array>
          </mxGeometry>
        </mxCell>
        <mxCell id="2TrJgn0k99Wz9AcOf1YM-36" value="memory" style="text;html=1;strokeColor=none;fillColor=none;align=center;verticalAlign=middle;whiteSpace=wrap;rounded=0;" vertex="1" parent="1">
          <mxGeometry x="830" y="130" width="80" height="30" as="geometry" />
        </mxCell>
        <mxCell id="2TrJgn0k99Wz9AcOf1YM-40" value="1000" style="text;html=1;strokeColor=none;fillColor=none;align=center;verticalAlign=middle;whiteSpace=wrap;rounded=0;" vertex="1" parent="1">
          <mxGeometry x="770" y="270" width="60" height="20" as="geometry" />
        </mxCell>
        <mxCell id="2TrJgn0k99Wz9AcOf1YM-41" value="" style="endArrow=none;html=1;rounded=0;" edge="1" parent="1">
          <mxGeometry width="50" height="50" relative="1" as="geometry">
            <mxPoint x="830" y="200" as="sourcePoint" />
            <mxPoint x="910" y="200" as="targetPoint" />
          </mxGeometry>
        </mxCell>
        <mxCell id="2TrJgn0k99Wz9AcOf1YM-42" value="" style="endArrow=none;html=1;rounded=0;" edge="1" parent="1">
          <mxGeometry width="50" height="50" relative="1" as="geometry">
            <mxPoint x="830" y="180" as="sourcePoint" />
            <mxPoint x="910" y="180" as="targetPoint" />
          </mxGeometry>
        </mxCell>
        <mxCell id="2TrJgn0k99Wz9AcOf1YM-43" value="2000" style="text;html=1;strokeColor=none;fillColor=none;align=center;verticalAlign=middle;whiteSpace=wrap;rounded=0;" vertex="1" parent="1">
          <mxGeometry x="770" y="180" width="60" height="20" as="geometry" />
        </mxCell>
        <mxCell id="2TrJgn0k99Wz9AcOf1YM-44" value="" style="endArrow=classic;html=1;rounded=0;exitX=1;exitY=0.5;exitDx=0;exitDy=0;entryX=0.999;entryY=0.182;entryDx=0;entryDy=0;entryPerimeter=0;" edge="1" parent="1" source="2TrJgn0k99Wz9AcOf1YM-34" target="2TrJgn0k99Wz9AcOf1YM-28">
          <mxGeometry width="50" height="50" relative="1" as="geometry">
            <mxPoint x="900" y="290" as="sourcePoint" />
            <mxPoint x="960" y="190" as="targetPoint" />
            <Array as="points">
              <mxPoint x="960" y="290" />
              <mxPoint x="960" y="190" />
            </Array>
          </mxGeometry>
        </mxCell>
        <mxCell id="2TrJgn0k99Wz9AcOf1YM-45" value="operand" style="text;html=1;strokeColor=none;fillColor=none;align=center;verticalAlign=middle;whiteSpace=wrap;rounded=0;" vertex="1" parent="1">
          <mxGeometry x="830" y="180" width="80" height="20" as="geometry" />
        </mxCell>
        <mxCell id="2TrJgn0k99Wz9AcOf1YM-46" value="effective address" style="text;html=1;strokeColor=none;fillColor=none;align=center;verticalAlign=middle;whiteSpace=wrap;rounded=0;" vertex="1" parent="1">
          <mxGeometry x="910" y="290" width="100" height="30" as="geometry" />
        </mxCell>
        <mxCell id="2TrJgn0k99Wz9AcOf1YM-47" value="" style="rounded=0;whiteSpace=wrap;html=1;" vertex="1" parent="1">
          <mxGeometry x="250" y="420" width="190" height="40" as="geometry" />
        </mxCell>
        <mxCell id="2TrJgn0k99Wz9AcOf1YM-48" value="opcode" style="text;html=1;strokeColor=none;fillColor=none;align=center;verticalAlign=middle;whiteSpace=wrap;rounded=0;" vertex="1" parent="1">
          <mxGeometry x="250" y="425" width="60" height="30" as="geometry" />
        </mxCell>
        <mxCell id="2TrJgn0k99Wz9AcOf1YM-49" value="" style="endArrow=none;html=1;rounded=0;entryX=0.325;entryY=0.018;entryDx=0;entryDy=0;entryPerimeter=0;" edge="1" parent="1">
          <mxGeometry width="50" height="50" relative="1" as="geometry">
            <mxPoint x="310" y="460" as="sourcePoint" />
            <mxPoint x="310" y="420" as="targetPoint" />
          </mxGeometry>
        </mxCell>
        <mxCell id="2TrJgn0k99Wz9AcOf1YM-50" value="register address" style="text;html=1;strokeColor=none;fillColor=none;align=center;verticalAlign=middle;whiteSpace=wrap;rounded=0;" vertex="1" parent="1">
          <mxGeometry x="310" y="425" width="130" height="30" as="geometry" />
        </mxCell>
        <mxCell id="2TrJgn0k99Wz9AcOf1YM-51" value="Register Direct" style="text;html=1;strokeColor=none;fillColor=none;align=center;verticalAlign=middle;whiteSpace=wrap;rounded=0;fontStyle=2" vertex="1" parent="1">
          <mxGeometry x="260" y="380" width="170" height="30" as="geometry" />
        </mxCell>
        <mxCell id="2TrJgn0k99Wz9AcOf1YM-52" value="" style="rounded=0;whiteSpace=wrap;html=1;" vertex="1" parent="1">
          <mxGeometry x="450" y="500" width="80" height="120" as="geometry" />
        </mxCell>
        <mxCell id="2TrJgn0k99Wz9AcOf1YM-53" value="" style="endArrow=none;html=1;rounded=0;" edge="1" parent="1">
          <mxGeometry width="50" height="50" relative="1" as="geometry">
            <mxPoint x="450" y="520" as="sourcePoint" />
            <mxPoint x="530" y="520" as="targetPoint" />
          </mxGeometry>
        </mxCell>
        <mxCell id="2TrJgn0k99Wz9AcOf1YM-54" value="" style="endArrow=none;html=1;rounded=0;" edge="1" parent="1">
          <mxGeometry width="50" height="50" relative="1" as="geometry">
            <mxPoint x="450" y="540" as="sourcePoint" />
            <mxPoint x="530" y="540" as="targetPoint" />
          </mxGeometry>
        </mxCell>
        <mxCell id="2TrJgn0k99Wz9AcOf1YM-55" value="" style="endArrow=none;html=1;rounded=0;" edge="1" parent="1">
          <mxGeometry width="50" height="50" relative="1" as="geometry">
            <mxPoint x="450" y="559.8" as="sourcePoint" />
            <mxPoint x="530" y="559.8" as="targetPoint" />
          </mxGeometry>
        </mxCell>
        <mxCell id="2TrJgn0k99Wz9AcOf1YM-56" value="" style="endArrow=none;html=1;rounded=0;" edge="1" parent="1">
          <mxGeometry width="50" height="50" relative="1" as="geometry">
            <mxPoint x="450" y="580" as="sourcePoint" />
            <mxPoint x="530" y="580" as="targetPoint" />
          </mxGeometry>
        </mxCell>
        <mxCell id="2TrJgn0k99Wz9AcOf1YM-57" value="" style="endArrow=none;html=1;rounded=0;" edge="1" parent="1">
          <mxGeometry width="50" height="50" relative="1" as="geometry">
            <mxPoint x="450" y="600" as="sourcePoint" />
            <mxPoint x="530" y="600" as="targetPoint" />
          </mxGeometry>
        </mxCell>
        <mxCell id="2TrJgn0k99Wz9AcOf1YM-59" value="" style="endArrow=classic;html=1;rounded=0;exitX=0.656;exitY=1.015;exitDx=0;exitDy=0;exitPerimeter=0;entryX=0;entryY=0.5;entryDx=0;entryDy=0;" edge="1" parent="1" source="2TrJgn0k99Wz9AcOf1YM-47">
          <mxGeometry width="50" height="50" relative="1" as="geometry">
            <mxPoint x="450" y="610" as="sourcePoint" />
            <mxPoint x="450" y="550" as="targetPoint" />
            <Array as="points">
              <mxPoint x="375" y="550" />
            </Array>
          </mxGeometry>
        </mxCell>
        <mxCell id="2TrJgn0k99Wz9AcOf1YM-60" value="GPRs" style="text;html=1;strokeColor=none;fillColor=none;align=center;verticalAlign=middle;whiteSpace=wrap;rounded=0;" vertex="1" parent="1">
          <mxGeometry x="450" y="470" width="80" height="30" as="geometry" />
        </mxCell>
        <mxCell id="2TrJgn0k99Wz9AcOf1YM-95" value="" style="rounded=0;whiteSpace=wrap;html=1;" vertex="1" parent="1">
          <mxGeometry x="610" y="420" width="190" height="40" as="geometry" />
        </mxCell>
        <mxCell id="2TrJgn0k99Wz9AcOf1YM-96" value="opcode" style="text;html=1;strokeColor=none;fillColor=none;align=center;verticalAlign=middle;whiteSpace=wrap;rounded=0;" vertex="1" parent="1">
          <mxGeometry x="610" y="425" width="60" height="30" as="geometry" />
        </mxCell>
        <mxCell id="2TrJgn0k99Wz9AcOf1YM-97" value="" style="endArrow=none;html=1;rounded=0;entryX=0.325;entryY=0.018;entryDx=0;entryDy=0;entryPerimeter=0;" edge="1" parent="1">
          <mxGeometry width="50" height="50" relative="1" as="geometry">
            <mxPoint x="670" y="460" as="sourcePoint" />
            <mxPoint x="670" y="420" as="targetPoint" />
          </mxGeometry>
        </mxCell>
        <mxCell id="2TrJgn0k99Wz9AcOf1YM-98" value="register address" style="text;html=1;strokeColor=none;fillColor=none;align=center;verticalAlign=middle;whiteSpace=wrap;rounded=0;" vertex="1" parent="1">
          <mxGeometry x="670" y="425" width="130" height="30" as="geometry" />
        </mxCell>
        <mxCell id="2TrJgn0k99Wz9AcOf1YM-99" value="Register Indirect" style="text;html=1;strokeColor=none;fillColor=none;align=center;verticalAlign=middle;whiteSpace=wrap;rounded=0;fontStyle=2" vertex="1" parent="1">
          <mxGeometry x="620" y="380" width="170" height="30" as="geometry" />
        </mxCell>
        <mxCell id="2TrJgn0k99Wz9AcOf1YM-100" value="" style="rounded=0;whiteSpace=wrap;html=1;" vertex="1" parent="1">
          <mxGeometry x="810" y="500" width="80" height="120" as="geometry" />
        </mxCell>
        <mxCell id="2TrJgn0k99Wz9AcOf1YM-101" value="" style="endArrow=none;html=1;rounded=0;" edge="1" parent="1">
          <mxGeometry width="50" height="50" relative="1" as="geometry">
            <mxPoint x="810" y="520" as="sourcePoint" />
            <mxPoint x="890" y="520" as="targetPoint" />
          </mxGeometry>
        </mxCell>
        <mxCell id="2TrJgn0k99Wz9AcOf1YM-102" value="" style="endArrow=none;html=1;rounded=0;" edge="1" parent="1">
          <mxGeometry width="50" height="50" relative="1" as="geometry">
            <mxPoint x="810" y="540" as="sourcePoint" />
            <mxPoint x="890" y="540" as="targetPoint" />
          </mxGeometry>
        </mxCell>
        <mxCell id="2TrJgn0k99Wz9AcOf1YM-103" value="" style="endArrow=none;html=1;rounded=0;" edge="1" parent="1">
          <mxGeometry width="50" height="50" relative="1" as="geometry">
            <mxPoint x="810" y="559.8" as="sourcePoint" />
            <mxPoint x="890" y="559.8" as="targetPoint" />
          </mxGeometry>
        </mxCell>
        <mxCell id="2TrJgn0k99Wz9AcOf1YM-104" value="" style="endArrow=none;html=1;rounded=0;" edge="1" parent="1">
          <mxGeometry width="50" height="50" relative="1" as="geometry">
            <mxPoint x="810" y="580" as="sourcePoint" />
            <mxPoint x="890" y="580" as="targetPoint" />
          </mxGeometry>
        </mxCell>
        <mxCell id="2TrJgn0k99Wz9AcOf1YM-105" value="" style="endArrow=none;html=1;rounded=0;" edge="1" parent="1">
          <mxGeometry width="50" height="50" relative="1" as="geometry">
            <mxPoint x="810" y="600" as="sourcePoint" />
            <mxPoint x="890" y="600" as="targetPoint" />
          </mxGeometry>
        </mxCell>
        <mxCell id="2TrJgn0k99Wz9AcOf1YM-106" value="address" style="text;html=1;strokeColor=none;fillColor=none;align=center;verticalAlign=middle;whiteSpace=wrap;rounded=0;" vertex="1" parent="1">
          <mxGeometry x="810" y="540" width="80" height="20" as="geometry" />
        </mxCell>
        <mxCell id="2TrJgn0k99Wz9AcOf1YM-107" value="" style="endArrow=classic;html=1;rounded=0;exitX=0.656;exitY=1.015;exitDx=0;exitDy=0;exitPerimeter=0;entryX=0;entryY=0.5;entryDx=0;entryDy=0;" edge="1" parent="1" source="2TrJgn0k99Wz9AcOf1YM-95" target="2TrJgn0k99Wz9AcOf1YM-106">
          <mxGeometry width="50" height="50" relative="1" as="geometry">
            <mxPoint x="810" y="610" as="sourcePoint" />
            <mxPoint x="860" y="560" as="targetPoint" />
            <Array as="points">
              <mxPoint x="735" y="550" />
            </Array>
          </mxGeometry>
        </mxCell>
        <mxCell id="2TrJgn0k99Wz9AcOf1YM-108" value="GPRs" style="text;html=1;strokeColor=none;fillColor=none;align=center;verticalAlign=middle;whiteSpace=wrap;rounded=0;" vertex="1" parent="1">
          <mxGeometry x="810" y="470" width="80" height="30" as="geometry" />
        </mxCell>
        <mxCell id="2TrJgn0k99Wz9AcOf1YM-109" value="" style="rounded=0;whiteSpace=wrap;html=1;" vertex="1" parent="1">
          <mxGeometry x="990" y="500" width="80" height="120" as="geometry" />
        </mxCell>
        <mxCell id="2TrJgn0k99Wz9AcOf1YM-110" value="" style="endArrow=none;html=1;rounded=0;" edge="1" parent="1">
          <mxGeometry width="50" height="50" relative="1" as="geometry">
            <mxPoint x="990" y="520" as="sourcePoint" />
            <mxPoint x="1070" y="520" as="targetPoint" />
          </mxGeometry>
        </mxCell>
        <mxCell id="2TrJgn0k99Wz9AcOf1YM-111" value="" style="endArrow=none;html=1;rounded=0;" edge="1" parent="1">
          <mxGeometry width="50" height="50" relative="1" as="geometry">
            <mxPoint x="990" y="540" as="sourcePoint" />
            <mxPoint x="1070" y="540" as="targetPoint" />
          </mxGeometry>
        </mxCell>
        <mxCell id="2TrJgn0k99Wz9AcOf1YM-112" value="" style="endArrow=none;html=1;rounded=0;" edge="1" parent="1">
          <mxGeometry width="50" height="50" relative="1" as="geometry">
            <mxPoint x="990" y="559.8" as="sourcePoint" />
            <mxPoint x="1070" y="559.8" as="targetPoint" />
          </mxGeometry>
        </mxCell>
        <mxCell id="2TrJgn0k99Wz9AcOf1YM-113" value="" style="endArrow=none;html=1;rounded=0;" edge="1" parent="1">
          <mxGeometry width="50" height="50" relative="1" as="geometry">
            <mxPoint x="990" y="580" as="sourcePoint" />
            <mxPoint x="1070" y="580" as="targetPoint" />
          </mxGeometry>
        </mxCell>
        <mxCell id="2TrJgn0k99Wz9AcOf1YM-114" value="" style="endArrow=none;html=1;rounded=0;" edge="1" parent="1">
          <mxGeometry width="50" height="50" relative="1" as="geometry">
            <mxPoint x="990" y="600" as="sourcePoint" />
            <mxPoint x="1070" y="600" as="targetPoint" />
          </mxGeometry>
        </mxCell>
        <mxCell id="2TrJgn0k99Wz9AcOf1YM-115" value="memory" style="text;html=1;strokeColor=none;fillColor=none;align=center;verticalAlign=middle;whiteSpace=wrap;rounded=0;" vertex="1" parent="1">
          <mxGeometry x="990" y="470" width="80" height="30" as="geometry" />
        </mxCell>
        <mxCell id="2TrJgn0k99Wz9AcOf1YM-116" value="operand" style="text;html=1;strokeColor=none;fillColor=none;align=center;verticalAlign=middle;whiteSpace=wrap;rounded=0;" vertex="1" parent="1">
          <mxGeometry x="990" y="580" width="80" height="20" as="geometry" />
        </mxCell>
        <mxCell id="2TrJgn0k99Wz9AcOf1YM-117" value="" style="endArrow=classic;html=1;rounded=0;exitX=1;exitY=0.5;exitDx=0;exitDy=0;entryX=0;entryY=0.5;entryDx=0;entryDy=0;" edge="1" parent="1" source="2TrJgn0k99Wz9AcOf1YM-106" target="2TrJgn0k99Wz9AcOf1YM-116">
          <mxGeometry width="50" height="50" relative="1" as="geometry">
            <mxPoint x="1130" y="460" as="sourcePoint" />
            <mxPoint x="1180" y="410" as="targetPoint" />
            <Array as="points">
              <mxPoint x="930" y="550" />
              <mxPoint x="930" y="590" />
            </Array>
          </mxGeometry>
        </mxCell>
        <mxCell id="2TrJgn0k99Wz9AcOf1YM-118" value="effective address" style="text;html=1;strokeColor=none;fillColor=none;align=center;verticalAlign=middle;whiteSpace=wrap;rounded=0;" vertex="1" parent="1">
          <mxGeometry x="890" y="515" width="80" height="30" as="geometry" />
        </mxCell>
        <mxCell id="2TrJgn0k99Wz9AcOf1YM-119" value="operand" style="text;html=1;strokeColor=none;fillColor=none;align=center;verticalAlign=middle;whiteSpace=wrap;rounded=0;" vertex="1" parent="1">
          <mxGeometry x="450" y="540" width="80" height="20" as="geometry" />
        </mxCell>
      </root>
    </mxGraphModel>
  </diagram>
</mxfile>
